<svg width="35" height="20" viewBox="0 0 35 20" fill="none" xmlns="http://www.w3.org/2000/svg">
<path fill-rule="evenodd" clip-rule="evenodd" d="M12.6372 17.836H22.0047V2.13477H12.6372V17.836Z" fill="#FF5F00"/>
<path fill-rule="evenodd" clip-rule="evenodd" d="M13.232 9.98559C13.232 6.80019 14.831 3.96317 17.3209 2.13497C15.4998 0.797738 13.2022 0 10.7048 0C4.79259 0 0 4.47077 0 9.98559C0 15.5004 4.79259 19.9712 10.7048 19.9712C13.2022 19.9712 15.4998 19.1734 17.3209 17.8362C14.831 16.0077 13.232 13.171 13.232 9.98559Z" fill="#EB001B"/>
<path fill-rule="evenodd" clip-rule="evenodd" d="M34.3075 16.1733V15.7858H34.1989L34.0743 16.0524L33.9494 15.7858H33.8409V16.1733H33.9173V15.881L34.0345 16.1331H34.1139L34.2311 15.8804V16.1733H34.3075ZM33.6202 16.1733V15.8518H33.7594V15.7864H33.4055V15.8518H33.5444V16.1733H33.6202ZM34.6417 9.98559C34.6417 15.5004 29.8489 19.9712 23.9369 19.9712C21.4395 19.9712 19.1417 19.1734 17.3208 17.8362C19.8108 16.008 21.4098 13.171 21.4098 9.98559C21.4098 6.80047 19.8108 3.96345 17.3208 2.13497C19.1417 0.797738 21.4395 0 23.9369 0C29.8489 0 34.6417 4.47077 34.6417 9.98559Z" fill="#F79E1B"/>
</svg>
