<svg width="68" height="70" viewBox="0 0 68 70" fill="none" xmlns="http://www.w3.org/2000/svg">
<path d="M55.1748 12.3084C67.9755 23.1909 69.1612 42.9454 57.6853 56.444C46.2095 69.9426 26.5217 71.9514 13.721 61.0689C0.920372 50.1864 -0.265361 30.4319 11.2105 16.9333C22.6864 3.4347 42.3742 1.42592 55.1748 12.3084Z" stroke="white" stroke-width="2"/>
<path d="M11.5931 57.7443C0.294292 45.2736 1.40891 25.8148 14.1355 14.2842C26.8621 2.75352 46.3361 3.55853 57.6349 16.0293C68.9337 28.5 67.8192 47.9588 55.0925 59.4894C42.3659 71.02 22.8918 70.215 11.5931 57.7443Z" stroke="white" stroke-width="2"/>
<path d="M22 36L28.723 44.964C29.2121 45.6162 29.9798 46 30.795 46C31.559 46 32.284 45.6627 32.7762 45.0783L48 27" stroke="white" stroke-width="3" stroke-linecap="round"/>
</svg>
