<svg width="165" height="165" viewBox="0 0 165 165" fill="none" xmlns="http://www.w3.org/2000/svg">
<path fill-rule="evenodd" clip-rule="evenodd" d="M159.739 25.1721C156.075 17.6749 150.393 11.3478 143.331 6.90144C136.27 2.4551 128.108 0.0656031 119.764 0.00133161C111.419 -0.0629399 103.222 2.20056 96.0926 6.5376C88.9634 10.8746 83.1845 17.1135 79.405 24.5533C68.185 45.2058 77.2738 73.1527 90.6938 80.5158C90.9941 80.684 91.3311 80.7759 91.6751 80.7835C92.0192 80.7911 92.3599 80.7141 92.6674 80.5594C92.9748 80.4046 93.2396 80.1769 93.4385 79.896C93.6373 79.6151 93.7643 79.2897 93.8081 78.9483C93.853 78.5375 93.7774 78.1226 93.5907 77.7539C93.4039 77.3853 93.114 77.0789 92.7563 76.8721C81.6807 69.9833 74.7232 44.9308 85.1182 27.7846C88.0039 22.59 92.0556 18.1357 96.9544 14.7722C101.853 11.4088 107.466 9.22777 113.35 8.40083C119.235 7.57389 125.231 8.12355 130.867 10.0066C136.503 11.8896 141.626 15.0546 145.831 19.2527C151.017 24.2048 154.714 30.5097 156.502 37.4538C158.29 44.3979 158.099 51.7039 155.95 58.545C153.8 65.386 149.779 71.4888 144.341 76.1627C138.903 80.8366 132.265 83.8949 125.179 84.9915C119.053 86.2936 112.722 86.2936 106.596 84.9915C106.276 84.8537 105.93 84.7869 105.582 84.7957C105.234 84.8046 104.892 84.8888 104.58 85.0426C104.268 85.1964 103.993 85.4162 103.773 85.6867C103.554 85.9572 103.397 86.272 103.311 86.6094C103.225 86.9468 103.214 87.2988 103.278 87.641C103.341 87.9833 103.478 88.3076 103.679 88.5917C103.881 88.8758 104.141 89.1129 104.443 89.2866C104.744 89.4603 105.08 89.5664 105.427 89.5977C112.198 91.2297 119.24 91.3938 126.079 90.079C133.202 89.1531 139.995 86.518 145.879 82.3984C151.763 78.2789 156.563 72.7971 159.87 66.4209C163.176 60.0446 164.891 52.9631 164.869 45.7805C164.846 38.5979 163.086 31.5273 159.739 25.1721Z" fill="#1D3A70"/>
<path fill-rule="evenodd" clip-rule="evenodd" d="M130.417 116.589C131.031 114.219 130.957 111.723 130.203 109.394C129.45 107.065 128.048 104.998 126.161 103.438C124.275 101.877 121.983 100.886 119.554 100.582C117.125 100.277 114.659 100.671 112.446 101.718C106.185 105.205 100.611 109.802 95.9941 115.283C92.5566 118.376 86.4241 123.265 83.6054 125.471L82.7116 126.434C80.5804 126.482 78.4491 126.248 76.3798 125.746C72.2479 124.715 68.666 124.303 67.2223 122.508C66.6035 121.752 67.2223 120.858 68.4598 119.208C76.7923 106.469 87.0429 102.475 79.7485 90.0858C78.6498 88.3342 76.9898 87.0067 75.0394 86.3199C73.0891 85.6332 70.9636 85.6278 69.0098 86.3045C58.546 88.5045 48.9073 98.3427 38.4435 104.544C38.1528 104.694 37.8954 104.901 37.687 105.153C37.4785 105.405 37.3233 105.696 37.2307 106.01C37.1381 106.324 37.11 106.653 37.1481 106.978C37.1863 107.302 37.2898 107.616 37.4526 107.9C37.6153 108.183 37.8339 108.431 38.095 108.628C38.3562 108.825 38.6545 108.967 38.972 109.045C39.2895 109.123 39.6196 109.136 39.9424 109.084C40.2651 109.031 40.5738 108.913 40.8498 108.738C51.8704 102.825 58.6148 95.9364 67.9785 92.5608C70.7973 91.667 73.5541 90.9108 74.8604 93.1108C75.5246 93.982 75.9709 94.9994 76.1622 96.078C76.3536 97.1567 76.2844 98.2655 75.9604 99.312C73.4854 106.194 54.8954 117.689 62.1966 126.846C65.4279 131.178 77.6173 133.728 83.6741 134.072C91.6191 133.906 99.5182 132.821 107.214 130.841C128.21 125.471 130.624 121.958 133.099 127.053C135.024 131.109 126.56 137.035 122.91 139.716C94.8941 160.988 47.8073 147.774 46.4323 148.118C30.0491 152.518 32.6616 152.311 32.6616 151.418C33.6241 139.675 33.8029 127.878 33.2116 116.108C33.2116 110.463 33.2116 103.3 29.0866 99.2433C24.9548 95.1802 18.4166 96.9058 13.391 96.837C9.25185 96.2624 5.03615 96.6385 1.06414 97.937C0.603304 98.1978 0.258193 98.6233 0.0981154 99.1281C-0.0619625 99.6328 -0.0251538 100.179 0.20115 100.658C0.427453 101.137 0.826494 101.512 1.31814 101.709C1.80978 101.906 2.35762 101.909 2.85164 101.718C6.24281 101.212 9.69792 101.328 13.0473 102.062C17.1035 102.543 21.7166 101.443 23.9923 103.987C26.261 106.538 25.0923 112.938 25.0235 116.176C24.336 153.762 25.5048 155.068 23.5798 156.787C20.2729 159.681 8.36539 158.575 3.68352 157.887C3.09021 157.819 2.49284 157.974 2.00691 158.321C1.52098 158.668 1.181 159.183 1.05273 159.766C0.924453 160.349 1.01699 160.96 1.31244 161.478C1.60789 161.997 2.08527 162.388 2.65227 162.576C9.53414 164.295 22.0604 166.22 27.5673 161.888C29.1348 160.596 30.2829 158.863 30.8741 156.931C36.2091 156.093 41.4616 154.8 46.5698 153.075C71.7666 159.956 105.489 161.4 127.042 146.186C132.11 143.079 136.433 138.897 139.705 133.935C140.636 132.22 141.126 130.301 141.131 128.35C141.136 126.4 140.657 124.478 139.736 122.758C138.816 121.039 137.482 119.575 135.855 118.498C134.229 117.421 132.36 116.765 130.417 116.589ZM94.0004 125.196C90.8379 125.678 92.4879 125.815 100.332 120.721C107.214 115.97 115.89 105.919 120.985 108.188C122.634 108.953 123.956 110.282 124.712 111.936C125.469 113.59 125.61 115.459 125.11 117.208C112.584 120.37 105.633 123.471 94.2066 125.334L94.0004 125.196ZM103.708 29.7852C103.479 29.9628 103.297 30.1932 103.178 30.4567C103.058 30.7202 103.004 31.0087 103.02 31.2977C103.02 31.7789 101.233 54.1502 101.302 54.6314C101.302 61.5202 104.808 63.7202 111.759 65.0264C110.246 69.0208 113.271 73.2902 114.784 73.2902C116.303 73.2902 118.503 67.7145 117.334 65.6452C118.874 65.7506 120.412 65.7506 121.947 65.6452C121.947 67.7764 122.497 73.8402 125.11 73.8402C127.722 73.8402 129.524 67.7833 128.073 64.6139C130.574 64.2572 132.887 63.0857 134.654 61.281C136.422 59.4763 137.545 57.139 137.849 54.6314C138.04 52.6653 137.662 50.6857 136.76 48.9283C135.858 47.1708 134.47 45.7093 132.762 44.7177C138.674 40.1802 138.262 29.9914 126.285 28.0595C128.142 22.972 126.285 23.3845 126.285 19.7339C126.268 19.2719 126.071 18.8347 125.738 18.5142C125.405 18.1937 124.96 18.0148 124.498 18.0152C123.535 18.0152 123.054 18.4964 122.298 19.1152C121.473 20.6368 120.875 22.241 120.504 23.9277C120.366 25.1858 120.51 26.4508 120.916 27.647C115.203 27.647 115.065 28.1971 115.409 27.647C115.945 26.437 116.179 25.117 116.097 23.797C115.272 16.9083 114.584 18.2902 113.69 17.802C112.797 17.3139 109.902 21.1777 109.421 23.522C109.32 24.2289 109.32 24.9464 109.421 25.6533V26.822L109.765 28.8158C103.433 29.7095 104.533 29.1664 103.708 29.7852ZM129.035 57.3127C122.25 60.2827 114.598 60.6539 107.558 58.3439C105.495 56.6252 106.045 50.7745 106.32 47.6739C110.514 48.3614 126.079 47.6739 129.585 50.7677C130.086 51.1625 130.481 51.6755 130.734 52.2606C130.987 52.8456 131.091 53.4844 131.037 54.1196C130.982 54.7548 130.771 55.3665 130.422 55.8998C130.072 56.4332 129.596 56.8714 129.035 57.1752V57.3127ZM113.34 32.322C117.884 32.322 130.28 31.9095 130.83 36.3095C131.38 40.7233 125.46 41.8233 120.779 41.892C105.22 40.1733 107.008 43.4733 107.008 40.1045V33.5595C108.177 33.147 105.564 33.422 113.34 32.322Z" fill="#020202"/>
</svg>
