<svg width="155" height="158" viewBox="0 0 155 158" fill="none" xmlns="http://www.w3.org/2000/svg">
<rect width="155" height="158" rx="28" fill="white"/>
<path d="M40.692 121.844V127.616H47.604V129.692H40.692V137H38.124V119.768H48.804V121.844H40.692ZM56.0788 131.588C55.1268 131.62 54.3188 131.696 53.6548 131.816C52.9908 131.928 52.4508 132.08 52.0348 132.272C51.6188 132.464 51.3188 132.692 51.1348 132.956C50.9508 133.212 50.8588 133.5 50.8588 133.82C50.8588 134.124 50.9068 134.388 51.0028 134.612C51.1068 134.828 51.2428 135.008 51.4108 135.152C51.5868 135.288 51.7908 135.388 52.0228 135.452C52.2548 135.516 52.5068 135.548 52.7788 135.548C53.1388 135.548 53.4668 135.512 53.7628 135.44C54.0668 135.368 54.3508 135.268 54.6148 135.14C54.8788 135.004 55.1308 134.84 55.3708 134.648C55.6108 134.456 55.8468 134.236 56.0788 133.988V131.588ZM49.2148 126.512C49.8948 125.864 50.6308 125.38 51.4228 125.06C52.2228 124.74 53.0988 124.58 54.0508 124.58C54.7468 124.58 55.3628 124.696 55.8988 124.928C56.4348 125.152 56.8868 125.468 57.2548 125.876C57.6228 126.284 57.8988 126.772 58.0828 127.34C58.2748 127.908 58.3708 128.536 58.3708 129.224V137H57.3268C57.0948 137 56.9188 136.964 56.7988 136.892C56.6788 136.812 56.5828 136.668 56.5108 136.46L56.2588 135.392C55.9468 135.68 55.6388 135.936 55.3348 136.16C55.0308 136.376 54.7108 136.564 54.3748 136.724C54.0468 136.876 53.6948 136.992 53.3188 137.072C52.9428 137.152 52.5268 137.192 52.0708 137.192C51.5908 137.192 51.1388 137.128 50.7148 137C50.2988 136.864 49.9348 136.66 49.6228 136.388C49.3108 136.116 49.0628 135.776 48.8788 135.368C48.7028 134.96 48.6148 134.484 48.6148 133.94C48.6148 133.46 48.7428 133 48.9988 132.56C49.2628 132.112 49.6868 131.712 50.2708 131.36C50.8628 131.008 51.6308 130.72 52.5748 130.496C53.5268 130.272 54.6948 130.144 56.0788 130.112V129.224C56.0788 128.304 55.8828 127.616 55.4908 127.16C55.0988 126.704 54.5228 126.476 53.7628 126.476C53.2508 126.476 52.8188 126.54 52.4668 126.668C52.1228 126.796 51.8228 126.94 51.5668 127.1C51.3188 127.252 51.0988 127.392 50.9068 127.52C50.7228 127.648 50.5308 127.712 50.3308 127.712C50.1708 127.712 50.0308 127.668 49.9108 127.58C49.7988 127.492 49.7068 127.388 49.6348 127.268L49.2148 126.512ZM70.0474 127.088C69.9754 127.176 69.9034 127.248 69.8314 127.304C69.7674 127.352 69.6714 127.376 69.5434 127.376C69.4154 127.376 69.2794 127.328 69.1354 127.232C68.9994 127.128 68.8234 127.02 68.6074 126.908C68.3994 126.788 68.1434 126.68 67.8394 126.584C67.5434 126.48 67.1754 126.428 66.7354 126.428C66.1594 126.428 65.6514 126.532 65.2114 126.74C64.7714 126.948 64.4034 127.244 64.1074 127.628C63.8194 128.012 63.5994 128.48 63.4474 129.032C63.2954 129.584 63.2194 130.204 63.2194 130.892C63.2194 131.604 63.2994 132.24 63.4594 132.8C63.6194 133.352 63.8474 133.82 64.1434 134.204C64.4394 134.58 64.7994 134.868 65.2234 135.068C65.6474 135.26 66.1194 135.356 66.6394 135.356C67.1434 135.356 67.5594 135.296 67.8874 135.176C68.2154 135.048 68.4874 134.912 68.7034 134.768C68.9194 134.624 69.0994 134.492 69.2434 134.372C69.3874 134.244 69.5354 134.18 69.6874 134.18C69.8794 134.18 70.0274 134.252 70.1314 134.396L70.8034 135.26C70.5234 135.604 70.2074 135.896 69.8554 136.136C69.5114 136.376 69.1434 136.572 68.7514 136.724C68.3594 136.876 67.9474 136.988 67.5154 137.06C67.0914 137.132 66.6594 137.168 66.2194 137.168C65.4594 137.168 64.7474 137.028 64.0834 136.748C63.4274 136.468 62.8554 136.06 62.3674 135.524C61.8874 134.988 61.5074 134.332 61.2274 133.556C60.9474 132.772 60.8074 131.884 60.8074 130.892C60.8074 129.988 60.9314 129.152 61.1794 128.384C61.4354 127.616 61.8074 126.956 62.2954 126.404C62.7914 125.844 63.3994 125.408 64.1194 125.096C64.8394 124.776 65.6634 124.616 66.5914 124.616C67.4634 124.616 68.2314 124.756 68.8954 125.036C69.5594 125.316 70.1514 125.712 70.6714 126.224L70.0474 127.088ZM80.8528 129.548C80.8528 129.084 80.7848 128.656 80.6488 128.264C80.5208 127.872 80.3288 127.532 80.0728 127.244C79.8168 126.956 79.5048 126.732 79.1368 126.572C78.7688 126.412 78.3448 126.332 77.8648 126.332C76.8808 126.332 76.1048 126.616 75.5368 127.184C74.9768 127.752 74.6208 128.54 74.4688 129.548H80.8528ZM82.7848 135.26C82.4968 135.596 82.1648 135.888 81.7888 136.136C81.4128 136.376 81.0128 136.572 80.5888 136.724C80.1648 136.876 79.7248 136.988 79.2688 137.06C78.8208 137.132 78.3768 137.168 77.9368 137.168C77.0968 137.168 76.3168 137.028 75.5968 136.748C74.8848 136.46 74.2648 136.044 73.7368 135.5C73.2168 134.948 72.8088 134.268 72.5128 133.46C72.2248 132.644 72.0808 131.708 72.0808 130.652C72.0808 129.804 72.2128 129.016 72.4768 128.288C72.7408 127.552 73.1168 126.912 73.6048 126.368C74.1008 125.824 74.7048 125.396 75.4168 125.084C76.1288 124.772 76.9288 124.616 77.8168 124.616C78.5608 124.616 79.2448 124.74 79.8688 124.988C80.5008 125.228 81.0448 125.58 81.5008 126.044C81.9568 126.508 82.3128 127.08 82.5688 127.76C82.8328 128.44 82.9648 129.216 82.9648 130.088C82.9648 130.448 82.9248 130.692 82.8448 130.82C82.7648 130.94 82.6168 131 82.4008 131H74.4088C74.4328 131.728 74.5368 132.364 74.7208 132.908C74.9048 133.444 75.1568 133.892 75.4768 134.252C75.8048 134.612 76.1928 134.88 76.6408 135.056C77.0888 135.232 77.5888 135.32 78.1408 135.32C78.6608 135.32 79.1088 135.26 79.4848 135.14C79.8688 135.02 80.1968 134.892 80.4688 134.756C80.7488 134.612 80.9808 134.48 81.1648 134.36C81.3568 134.24 81.5248 134.18 81.6688 134.18C81.8608 134.18 82.0088 134.252 82.1128 134.396L82.7848 135.26ZM94.5983 137H92.0303V119.768H94.5983V137ZM113.887 128.384C113.887 129.672 113.679 130.844 113.263 131.9C112.855 132.956 112.275 133.864 111.523 134.624C110.771 135.376 109.871 135.96 108.823 136.376C107.775 136.792 106.611 137 105.331 137H98.8506V119.768H105.331C106.611 119.768 107.775 119.976 108.823 120.392C109.871 120.808 110.771 121.396 111.523 122.156C112.275 122.908 112.855 123.816 113.263 124.88C113.679 125.936 113.887 127.104 113.887 128.384ZM111.271 128.384C111.271 127.36 111.131 126.444 110.851 125.636C110.571 124.82 110.171 124.132 109.651 123.572C109.139 123.004 108.515 122.572 107.779 122.276C107.051 121.98 106.235 121.832 105.331 121.832H101.419V134.936H105.331C106.235 134.936 107.051 134.788 107.779 134.492C108.515 134.196 109.139 133.768 109.651 133.208C110.171 132.64 110.571 131.952 110.851 131.144C111.131 130.336 111.271 129.416 111.271 128.384Z" fill="#1D3A70"/>
<path d="M47.625 66.8125C48.5224 66.8125 49.25 67.5401 49.25 68.4375V75.625C49.25 79.5537 52.4463 82.75 56.375 82.75H63.5625C64.4599 82.75 65.1875 83.4776 65.1875 84.375C65.1875 85.2724 64.4599 86 63.5625 86H56.375C50.6542 86 46 81.3457 46 75.625V68.4375C46 67.5401 46.7276 66.8125 47.625 66.8125ZM108.375 66.8125C109.272 66.8125 110 67.5401 110 68.4375V75.625C110 81.3457 105.346 86 99.625 86H92.4375C91.5401 86 90.8125 85.2724 90.8125 84.375C90.8125 83.4776 91.5401 82.75 92.4375 82.75H99.625C103.554 82.75 106.75 79.5537 106.75 75.625V68.4375C106.75 67.5401 107.478 66.8125 108.375 66.8125ZM86.9238 66.8232C87.6085 66.1909 88.6762 66.2333 89.3086 66.918C89.9408 67.6026 89.8984 68.6694 89.2139 69.3018C86.1523 72.1296 82.1701 73.6875 78 73.6875C73.8298 73.6875 69.8467 72.1296 66.7852 69.3018C66.1009 68.6693 66.0592 67.6025 66.6914 66.918C67.3238 66.2334 68.3904 66.191 69.0752 66.8232C71.5113 69.0735 74.6812 70.3125 78 70.3125C81.3186 70.3125 84.4878 69.0733 86.9238 66.8232ZM79.6875 44.4375C80.6195 44.4375 81.375 45.193 81.375 46.125V58.125C81.375 60.5029 79.4404 62.4375 77.0625 62.4375H75.6875C74.7555 62.4375 74 61.682 74 60.75C74 59.818 74.7555 59.0625 75.6875 59.0625H77.0625C77.5794 59.0625 78 58.6419 78 58.125V46.125C78 45.193 78.7555 44.4375 79.6875 44.4375ZM64.9688 44.4375C65.8489 44.4375 66.5625 45.1511 66.5625 46.0312V50.8438C66.5625 51.7239 65.8489 52.4375 64.9688 52.4375C64.0886 52.4375 63.375 51.7239 63.375 50.8438V46.0312C63.375 45.1511 64.0886 44.4375 64.9688 44.4375ZM91.4062 44.4375C92.2864 44.4375 93 45.1511 93 46.0312V50.8438C93 51.7239 92.2864 52.4375 91.4062 52.4375C90.5261 52.4375 89.8125 51.7239 89.8125 50.8438V46.0312C89.8125 45.1511 90.5261 44.4375 91.4062 44.4375ZM63.5625 22C64.4599 22 65.1875 22.7276 65.1875 23.625C65.1875 24.5224 64.4599 25.25 63.5625 25.25H56.375C52.4463 25.25 49.25 28.4462 49.25 32.375V39.5625C49.25 40.4599 48.5224 41.1875 47.625 41.1875C46.7276 41.1875 46 40.4599 46 39.5625V32.375C46 26.6542 50.6542 22 56.375 22H63.5625ZM99.625 22C105.346 22 110 26.6542 110 32.375V39.5625C110 40.4599 109.272 41.1875 108.375 41.1875C107.478 41.1875 106.75 40.4599 106.75 39.5625V32.375C106.75 28.4462 103.554 25.25 99.625 25.25H92.4375C91.5401 25.25 90.8125 24.5224 90.8125 23.625C90.8125 22.7276 91.5401 22 92.4375 22H99.625Z" fill="#1D3A70"/>
</svg>
